<svg xmlns="http://www.w3.org/2000/svg"><defs><g id="arrow_circle_right"><path d="M16,2v3.1c-1.4-2.53-4.04-4.12-7-4.12c-4.42,0-8.02,3.6-8.02,8.02s3.6,8.02,8.02,8.02c4.08,0,7.46-3.07,7.95-7.02h-1.01&#10;&#9;c-0.49,3.4-3.41,6.02-6.94,6.02c-3.87,0-7.02-3.15-7.02-7.02S5.13,1.98,9,1.98c2.7,0,5.17,1.6,6.33,4.02H12v1h5V2H16z"/></g><g id="heart_circle"><path d="M10.99,5.96c0.21,0.01,0.39,0.06,0.56,0.14c0.18,0.09,0.35,0.21,0.49,0.37c0.14,0.15,0.24,0.33,0.31,0.53&#10;&#9;c0.07,0.2,0.1,0.41,0.09,0.62l0,0.03v0.03c0,0.65-0.25,1.27-0.84,2.08c-0.41,0.55-1.67,1.88-2.6,2.83c-0.93-0.95-2.19-2.28-2.6-2.83&#10;&#9;c-0.59-0.8-0.84-1.43-0.84-2.08V7.65l0-0.03C5.55,7.41,5.58,7.2,5.65,7c0.07-0.2,0.17-0.38,0.31-0.53c0.14-0.15,0.3-0.28,0.48-0.36&#10;&#9;C6.62,6.02,6.8,5.98,6.99,5.96c0.24,0.01,0.47,0.07,0.67,0.17C7.87,6.24,8.06,6.4,8.2,6.59L9,7.64l0.8-1.04&#10;&#9;c0.15-0.19,0.34-0.35,0.55-0.46C10.55,6.03,10.77,5.97,10.99,5.96 M11.01,4.96c-0.38,0.01-0.77,0.1-1.11,0.28h0&#10;&#9;C9.55,5.42,9.24,5.68,9,5.99C8.76,5.68,8.45,5.42,8.11,5.24C7.76,5.07,7.38,4.97,6.97,4.96C6.64,4.98,6.32,5.06,6.01,5.2&#10;&#9;c-0.3,0.15-0.57,0.35-0.8,0.6C4.99,6.06,4.82,6.35,4.7,6.67c-0.11,0.32-0.16,0.66-0.14,1c0,0.87,0.32,1.69,1.04,2.67&#10;&#9;c0.65,0.89,3.04,3.3,3.14,3.4L9,14.01l0.26-0.27c0.1-0.1,2.49-2.51,3.14-3.4c0.72-0.98,1.04-1.8,1.04-2.67&#10;&#9;c0.02-0.34-0.03-0.68-0.14-1c-0.11-0.32-0.28-0.61-0.51-0.87c-0.23-0.25-0.5-0.46-0.8-0.6C11.68,5.06,11.36,4.98,11.01,4.96&#10;&#9;L11.01,4.96z M9,2c3.86,0,7,3.14,7,7s-3.14,7-7,7s-7-3.14-7-7S5.14,2,9,2 M9,1C4.58,1,1,4.58,1,9s3.58,8,8,8c4.42,0,8-3.58,8-8&#10;&#9;S13.42,1,9,1L9,1z"/></g><g id="info"><path d="M10,5H8v2h2V5z M10,8H8v5h2V8z M9,2c3.86,0,7,3.14,7,7s-3.14,7-7,7s-7-3.14-7-7S5.14,2,9,2 M9,1C4.58,1,1,4.58,1,9&#10;&#9;s3.58,8,8,8s8-3.58,8-8S13.42,1,9,1L9,1z"/></g><g id="lock-filled"><path d="M13,6V5c0-2.21-1.79-4-4-4C6.79,1,5,2.79,5,5v1H3v11h12V6H13z M6,5c0-1.65,1.35-3,3-3c1.65,0,3,1.35,3,3v1H6V5z M9,13 c-1.1,0-2-0.9-2-2c0-1.1,0.9-2,2-2s2,0.9,2,2C11,12.1,10.1,13,9,13z"/></g><g id="lock"><path d="M13,5c0-2.21-1.79-4-4-4C6.79,1,5,2.79,5,5v1H3v11h12V6h-2V5z M6,5c0-1.65,1.35-3,3-3c1.65,0,3,1.35,3,3v1H6V5z M14,7v9H4 V7H14z M7,11c0-1.1,0.9-2,2-2s2,0.9,2,2c0,1.1-0.9,2-2,2S7,12.1,7,11z"/></g><g id="music"><path fill-rule="evenodd" d="M15,1L6,5v7.52C5.58,12.19,5.07,12,4.5,12C3.12,12,2,13.12,2,14.5&#10;&#9;C2,15.88,3.12,17,4.5,17c1.37,0,2.48-1.1,2.5-2.47l0-5.88l7-3.11v3.98C13.58,9.19,13.07,9,12.5,9c-1.38,0-2.5,1.12-2.5,2.5&#10;&#9;c0,1.38,1.12,2.5,2.5,2.5c1.38,0,2.5-1.12,2.5-2.5C15,11.47,15,1,15,1z M4.5,16C3.67,16,3,15.33,3,14.5S3.67,13,4.5,13&#10;&#9;S6,13.67,6,14.5S5.33,16,4.5,16z M12.5,13c-0.83,0-1.5-0.67-1.5-1.5s0.67-1.5,1.5-1.5s1.5,0.67,1.5,1.5S13.33,13,12.5,13z M14,4.44&#10;&#9;L7,7.55V5.65l7-3.11V4.44z"/></g><g id="podcast"><path fill-rule="evenodd" clip-rule="evenodd" d="M10,10.72V17H8v-6.28C7.4,10.38,7,9.74,7,9c0-1.1,0.9-2,2-2s2,0.9,2,2&#10;&#9;C11,9.74,10.6,10.38,10,10.72z M6.14,11.79C5.44,11.07,5,10.08,5,9c0-2.21,1.79-4,4-4s4,1.79,4,4c0,1.08-0.44,2.07-1.14,2.79&#10;&#9;l0.71,0.71C13.45,11.59,14,10.36,14,9c0-2.76-2.24-5-5-5S4,6.24,4,9c0,1.36,0.55,2.59,1.43,3.5L6.14,11.79z M4.02,13.91&#10;&#9;C2.77,12.65,2,10.91,2,9c0-3.86,3.14-7,7-7s7,3.14,7,7c0,1.91-0.77,3.65-2.02,4.91l0.71,0.71C16.12,13.17,17,11.19,17,9&#10;&#9;c0-4.42-3.58-8-8-8S1,4.58,1,9c0,2.19,0.88,4.17,2.31,5.62L4.02,13.91z"/></g><g id="privacy_public-filled"><path d="M9,1C4.58,1,1,4.58,1,9s3.58,8,8,8s8-3.58,8-8S13.42,1,9,1z M10,15.92V14H9c-0.55,0-1-0.45-1-1v-0.77L2.04,8.26   C2.41,4.75,5.39,2,9,2c0.7,0,1.37,0.11,2,0.29V3c0,0.55-0.45,1-1,1H8v3c0,0.55-0.45,1-1,1H5.5v1H10c0.55,0,1,0.45,1,1   c0,1.1,0.9,2,2,2h1v1.89C12.95,14.96,11.56,15.7,10,15.92z"/></g><g id="privacy_public"><path d="M9,1C4.58,1,1,4.58,1,9s3.58,8,8,8s8-3.58,8-8S13.42,1,9,1z M16,9c0,1.31-0.37,2.54-1,3.59V11h-2c-0.55,0-1-0.45-1-1   c0-1.1-0.9-2-2-2H8.73C8.9,7.71,9,7.36,9,7V5h1c1.1,0,2-0.9,2-2V2.69C14.36,3.81,16,6.21,16,9z M2.02,9.45L7,12.77V13   c0,1.1,0.9,2,2,2v1C5.29,16,2.26,13.1,2.02,9.45z M10,15.92V14H9c-0.55,0-1-0.45-1-1v-0.77L2.04,8.26C2.41,4.75,5.39,2,9,2   c0.7,0,1.37,0.11,2,0.29V3c0,0.55-0.45,1-1,1H8v3c0,0.55-0.45,1-1,1H5.5v1H10c0.55,0,1,0.45,1,1c0,1.1,0.9,2,2,2h1v1.89   C12.95,14.96,11.56,15.7,10,15.92z"/></g></defs></svg>