<svg xmlns="http://www.w3.org/2000/svg"><defs><g id="arrow_circle_right"><path d="M11,0v2.7C9.91,1.03,8.06,0,6,0C2.69,0,0,2.69,0,6s2.69,6,6,6c2.97,0,5.44-2.17,5.91-5H10.9c-0.46,2.28-2.49,4-4.9,4&#10;&#9;c-2.76,0-5-2.25-5-5s2.25-5,5-5c2.01,0,3.78,1.18,4.58,3H7v1h5V0H11z"/></g><g id="keep-filled"><path d="M8,2V1H3v1h1v3.8L3,7h2v2.5L5.5,10L6,9.5V7h2L7,5.8V2H8z"/></g><g id="keep"><path d="M8,2V1H3v1h1v3.8L3,7h2v2.5L5.5,10L6,9.5V7h2L7,5.8V2H8z M6,6H5V2h1V6z"/></g><g id="music-filled"><path d="M10,1H6v4.51C5.58,5.19,5.07,5,4.5,5C3.12,5,2,6.12,2,7.5C2,8.88,3.12,10,4.5,10C5.88,10,7,8.88,7,7.5V4h3V1z"/></g><g id="music"><path d="M10,1H6v4.51C5.58,5.19,5.07,5,4.5,5C3.12,5,2,6.12,2,7.5C2,8.88,3.12,10,4.5,10C5.88,10,7,8.88,7,7.5V4h3V1z M4.5,9 C3.67,9,3,8.33,3,7.5S3.67,6,4.5,6S6,6.67,6,7.5S5.33,9,4.5,9z M9,3H7V2h2V3z"/></g></defs></svg>