<svg xmlns="http://www.w3.org/2000/svg"><defs><g id="heart_circle"><path d="M12.24,6.46c0.25,0.02,0.47,0.07,0.68,0.17c0.22,0.11,0.42,0.25,0.59,0.44c0.17,0.19,0.29,0.4,0.38,0.64&#10;&#9;C13.97,7.95,14.01,8.2,14,8.45l0,0.03V8.5c0,0.75-0.3,1.5-0.97,2.41c-0.47,0.64-1.97,2.22-3.02,3.29c-1.05-1.07-2.55-2.65-3.02-3.29&#10;&#9;C6.3,10,6,9.26,6,8.51V8.48l0-0.03C5.99,8.2,6.03,7.95,6.11,7.71c0.08-0.24,0.21-0.45,0.38-0.64c0.17-0.19,0.36-0.33,0.58-0.44&#10;&#9;c0.21-0.1,0.43-0.16,0.66-0.17c0.29,0.01,0.56,0.08,0.81,0.2C8.8,6.79,9.03,6.99,9.2,7.22L10,8.26l0.8-1.04&#10;&#9;c0.18-0.23,0.41-0.42,0.66-0.55C11.7,6.54,11.97,6.47,12.24,6.46 M12.26,5.46C11.82,5.47,11.39,5.57,11,5.77h0&#10;&#9;c-0.39,0.2-0.74,0.49-1,0.84C9.73,6.26,9.39,5.97,9,5.77c-0.39-0.2-0.82-0.31-1.28-0.31C7.34,5.48,6.98,5.57,6.64,5.73&#10;&#9;C6.3,5.89,5.99,6.12,5.74,6.41C5.49,6.69,5.29,7.02,5.17,7.38C5.04,7.74,4.98,8.12,5,8.51c0,0.98,0.36,1.91,1.17,3&#10;&#9;c0.73,1,3.42,3.71,3.53,3.82l0.3,0.3l0.3-0.3c0.11-0.12,2.8-2.83,3.53-3.82C14.64,10.41,15,9.48,15,8.5&#10;&#9;c0.02-0.38-0.04-0.76-0.16-1.12c-0.13-0.36-0.32-0.69-0.57-0.97c-0.25-0.29-0.56-0.51-0.9-0.68C13.02,5.57,12.66,5.48,12.26,5.46&#10;&#9;L12.26,5.46z M10,2c4.41,0,8,3.59,8,8s-3.59,8-8,8s-8-3.59-8-8S5.59,2,10,2 M10,1c-4.97,0-9,4.03-9,9c0,4.97,4.03,9,9,9&#10;&#9;c4.97,0,9-4.03,9-9C19,5.03,14.97,1,10,1L10,1z"/></g><g id="help-filled"><path d="M10,1c-4.97,0-9,4.03-9,9s4.03,9,9,9s9-4.03,9-9S14.97,1,10,1z M10,16c-0.55,0-1-0.45-1-1s0.45-1,1-1s1,0.45,1,1 S10.55,16,10,16z M11,12H9c0-2.92,2.8-2.59,2.8-4.4c0-0.99-0.81-1.8-1.8-1.8S8.2,6.61,8.2,7.6H6.4C6.4,5.61,8.01,4,10,4 s3.6,1.61,3.6,3.6C13.6,9.85,11,9.97,11,12z"/></g><g id="help"><path d="M10,2c4.41,0,8,3.59,8,8s-3.59,8-8,8s-8-3.59-8-8S5.59,2,10,2 M10,1c-4.97,0-9,4.03-9,9s4.03,9,9,9c4.97,0,9-4.03,9-9 S14.97,1,10,1L10,1z M10,4C8.01,4,6.4,5.61,6.4,7.6h1.8c0-0.99,0.81-1.8,1.8-1.8s1.8,0.81,1.8,1.8C11.8,9.41,9,9.08,9,12h2 c0-2.03,2.6-2.15,2.6-4.4C13.6,5.61,11.99,4,10,4z M10,14c-0.55,0-1,0.45-1,1s0.45,1,1,1s1-0.45,1-1S10.55,14,10,14z M10,2 c4.41,0,8,3.59,8,8s-3.59,8-8,8s-8-3.59-8-8S5.59,2,10,2 M10,1c-4.97,0-9,4.03-9,9s4.03,9,9,9c4.97,0,9-4.03,9-9S14.97,1,10,1L10,1z"/></g><g id="mix-filled"><path d="M8.27,12V8l3.46,2L8.27,12z M5.76,5.76C4.67,6.84,4,8.34,4,10s0.67,3.16,1.76,4.24l1.42-1.42C6.45,12.1,6,11.1,6,10 c0-1.1,0.45-2.1,1.17-2.83L5.76,5.76z M12.83,7.17C13.55,7.9,14,8.9,14,10c0,1.1-0.45,2.1-1.17,2.83l1.42,1.42 C15.33,13.16,16,11.66,16,10s-0.67-3.16-1.76-4.24L12.83,7.17z M3.64,3.64C2.01,5.26,1,7.51,1,10s1.01,4.74,2.64,6.36l1.42-1.42 C3.79,13.68,3,11.93,3,10c0-1.93,0.79-3.68,2.05-4.95L3.64,3.64z M14.95,5.05C16.21,6.32,17,8.07,17,10c0,1.93-0.79,3.68-2.05,4.95 l1.42,1.42C17.99,14.74,19,12.49,19,10s-1.01-4.74-2.64-6.36L14.95,5.05z"/></g><g id="mix"><path d="M8.27,12V8l3.46,2L8.27,12z M5.76,5.76C4.67,6.84,4,8.34,4,10s0.67,3.16,1.76,4.24l0.71-0.71C5.56,12.63,5,11.38,5,10 c0-1.38,0.56-2.63,1.47-3.53L5.76,5.76z M13.53,6.47C14.44,7.37,15,8.62,15,10c0,1.38-0.56,2.63-1.47,3.53l0.71,0.71 C15.33,13.16,16,11.66,16,10s-0.67-3.16-1.76-4.24L13.53,6.47z M3.64,3.64C2.01,5.26,1,7.51,1,10s1.01,4.74,2.64,6.36l0.71-0.71 C2.9,14.21,2,12.21,2,10c0-2.21,0.9-4.21,2.35-5.65L3.64,3.64z M15.65,4.35C17.1,5.79,18,7.79,18,10c0,2.21-0.9,4.21-2.35,5.65 l0.71,0.71C17.99,14.74,19,12.49,19,10s-1.01-4.74-2.64-6.36L15.65,4.35z"/></g></defs></svg>