<svg xmlns="http://www.w3.org/2000/svg"><defs><g width="36" height="36" viewBox="0 0 36 36" fill="none" id="face_happy_v2-filled"><circle cx="18" cy="18" r="16" fill="#FFD61D"/><path d="M15 14.5C15 15.88 13.88 17 12.5 17C11.12 17 10 15.88 10 14.5C10 13.12 11.12 12 12.5 12C13.88 12 15 13.12 15 14.5ZM23.5 12C22.12 12 21 13.12 21 14.5C21 15.88 22.12 17 23.5 17C24.88 17 26 15.88 26 14.5C26 13.12 24.88 12 23.5 12ZM24.77 22.27C24.92 22.04 24.85 21.73 24.61 21.58C24.38 21.43 24.07 21.5 23.92 21.74C22.63 23.78 20.42 25 18 25C15.58 25 13.37 23.78 12.08 21.73C11.93 21.5 11.62 21.43 11.39 21.57C11.16 21.72 11.09 22.03 11.23 22.26C12.71 24.6 15.24 26 18 26C20.76 26 23.29 24.6 24.77 22.27Z" fill="black"/></g><g width="36" height="36" viewBox="0 0 36 36" id="face_happy_v2"><path d="M15,14.5c0,1.38-1.12,2.5-2.5,2.5S10,15.88,10,14.5s1.12-2.5,2.5-2.5S15,13.12,15,14.5z M23.5,12c-1.38,0-2.5,1.12-2.5,2.5  s1.12,2.5,2.5,2.5s2.5-1.12,2.5-2.5S24.88,12,23.5,12z M24.77,22.27c0.15-0.23,0.08-0.54-0.16-0.69c-0.23-0.15-0.54-0.08-0.69,0.16  C22.63,23.78,20.42,25,18,25c-2.42,0-4.63-1.22-5.92-3.27c-0.15-0.23-0.46-0.3-0.69-0.16c-0.23,0.15-0.3,0.46-0.16,0.69  C12.71,24.6,15.24,26,18,26C20.76,26,23.29,24.6,24.77,22.27z M18,3C9.73,3,3,9.73,3,18s6.73,15,15,15s15-6.73,15-15S26.27,3,18,3   M18,2c8.84,0,16,7.16,16,16s-7.16,16-16,16S2,26.84,2,18S9.16,2,18,2L18,2z"/></g><g width="36" height="36" viewBox="0 0 36 36" fill="none" id="face_meh_v2-filled"><circle cx="18" cy="18" r="16" fill="#FFD61D"/><path d="M15 14.5C15 15.88 13.88 17 12.5 17C11.12 17 10 15.88 10 14.5C10 13.12 11.12 12 12.5 12C13.88 12 15 13.12 15 14.5ZM23.5 12C22.12 12 21 13.12 21 14.5C21 15.88 22.12 17 23.5 17C24.88 17 26 15.88 26 14.5C26 13.12 24.88 12 23.5 12ZM25 24.5C25 24.22 24.78 24 24.5 24H11.5C11.22 24 11 24.22 11 24.5C11 24.78 11.22 25 11.5 25H24.5C24.78 25 25 24.78 25 24.5Z" fill="black"/></g><g width="36" height="36" viewBox="0 0 36 36" id="face_meh_v2"><path d="M15,14.5c0,1.38-1.12,2.5-2.5,2.5S10,15.88,10,14.5s1.12-2.5,2.5-2.5S15,13.12,15,14.5z M23.5,12c-1.38,0-2.5,1.12-2.5,2.5  s1.12,2.5,2.5,2.5s2.5-1.12,2.5-2.5S24.88,12,23.5,12z M18,3C9.73,3,3,9.73,3,18s6.73,15,15,15s15-6.73,15-15S26.27,3,18,3 M18,2  c8.84,0,16,7.16,16,16s-7.16,16-16,16S2,26.84,2,18S9.16,2,18,2L18,2z M25,24.5c0-0.28-0.22-0.5-0.5-0.5h-13  c-0.28,0-0.5,0.22-0.5,0.5s0.22,0.5,0.5,0.5h13C24.78,25,25,24.78,25,24.5z"/></g><g width="36" height="36" viewBox="0 0 36 36" fill="none" id="face_sad_v2-filled"><circle cx="18" cy="18" r="16" fill="#FFD61D"/><path d="M11.65 25.5C11.56 25.5 11.47 25.48 11.38 25.42C11.15 25.27 11.08 24.96 11.22 24.73C12.71 22.4 15.24 21 18 21C20.76 21 23.29 22.4 24.77 24.73C24.92 24.96 24.85 25.27 24.61 25.42C24.38 25.57 24.07 25.5 23.92 25.26C22.63 23.22 20.42 22 18 22C15.58 22 13.37 23.22 12.08 25.27C11.98 25.42 11.82 25.5 11.65 25.5ZM12.5 12C11.12 12 10 13.12 10 14.5C10 15.88 11.12 17 12.5 17C13.88 17 15 15.88 15 14.5C15 13.12 13.88 12 12.5 12ZM23.5 12C22.12 12 21 13.12 21 14.5C21 15.88 22.12 17 23.5 17C24.88 17 26 15.88 26 14.5C26 13.12 24.88 12 23.5 12Z" fill="black"/></g><g width="36" height="36" viewBox="0 0 36 36" id="face_sad_v2"><path d="M11.65,25.5c-0.09,0-0.18-0.02-0.27-0.08c-0.23-0.15-0.3-0.46-0.16-0.69C12.71,22.4,15.24,21,18,21  c2.76,0,5.29,1.4,6.77,3.73c0.15,0.23,0.08,0.54-0.16,0.69c-0.23,0.15-0.54,0.08-0.69-0.16C22.63,23.22,20.42,22,18,22  c-2.42,0-4.63,1.22-5.92,3.27C11.98,25.42,11.82,25.5,11.65,25.5z M12.5,12c-1.38,0-2.5,1.12-2.5,2.5s1.12,2.5,2.5,2.5  s2.5-1.12,2.5-2.5S13.88,12,12.5,12z M23.5,12c-1.38,0-2.5,1.12-2.5,2.5s1.12,2.5,2.5,2.5s2.5-1.12,2.5-2.5S24.88,12,23.5,12z M18,3  C9.73,3,3,9.73,3,18s6.73,15,15,15s15-6.73,15-15S26.27,3,18,3 M18,2c8.84,0,16,7.16,16,16s-7.16,16-16,16S2,26.84,2,18S9.16,2,18,2  L18,2z"/></g><g width="36" height="36" viewBox="0 0 36 36" fill="none" id="face_unhappy_v2-filled"><circle cx="18" cy="18" r="16" fill="#FFD61D"/><path d="M24.88 26.5C24.69 26.5 24.5 26.39 24.42 26.2C23.3 23.65 20.78 22 18 22C15.22 22 12.7 23.65 11.58 26.2C11.47 26.45 11.18 26.57 10.92 26.46C10.67 26.35 10.55 26.05 10.66 25.8C11.94 22.88 14.82 21 18 21C21.18 21 24.06 22.88 25.33 25.8C25.44 26.05 25.33 26.35 25.07 26.46C25.01 26.49 24.94 26.5 24.88 26.5ZM16.46 12.71C16.57 12.46 16.46 12.16 16.21 12.05C15.96 11.94 15.66 12.05 15.55 12.3C15.03 13.43 14.01 14 12.5 14C11.05 14 10.03 13.42 9.44998 12.27C9.32998 12.02 9.02998 11.92 8.77998 12.05C8.52998 12.17 8.43998 12.48 8.55998 12.72C9.30998 14.21 10.67 15 12.5 15C14.41 15 15.78 14.21 16.46 12.71ZM27.46 12.71C27.57 12.46 27.46 12.16 27.21 12.05C26.96 11.94 26.66 12.05 26.55 12.3C26.03 13.43 25.01 14 23.5 14C22.05 14 21.03 13.42 20.45 12.27C20.32 12.02 20.02 11.92 19.78 12.05C19.53 12.17 19.44 12.48 19.56 12.72C20.31 14.21 21.67 15 23.5 15C25.41 15 26.78 14.21 27.46 12.71Z" fill="black"/></g><g width="36" height="36" viewBox="0 0 36 36" id="face_unhappy_v2"><path d="M24.88,26.5c-0.19,0-0.38-0.11-0.46-0.3C23.3,23.65,20.78,22,18,22s-5.3,1.65-6.42,4.2c-0.11,0.25-0.4,0.37-0.66,0.26  c-0.25-0.11-0.37-0.41-0.26-0.66C11.94,22.88,14.82,21,18,21s6.06,1.88,7.33,4.8c0.11,0.25,0,0.55-0.26,0.66  C25.01,26.49,24.94,26.5,24.88,26.5z M18,3C9.73,3,3,9.73,3,18s6.73,15,15,15s15-6.73,15-15S26.27,3,18,3 M18,2  c8.84,0,16,7.16,16,16s-7.16,16-16,16S2,26.84,2,18S9.16,2,18,2L18,2z M16.46,12.71c0.11-0.25,0-0.55-0.25-0.66  c-0.25-0.11-0.55,0-0.66,0.25C15.03,13.43,14.01,14,12.5,14c-1.45,0-2.47-0.58-3.05-1.73c-0.12-0.25-0.42-0.35-0.67-0.22  c-0.25,0.12-0.34,0.43-0.22,0.67C9.31,14.21,10.67,15,12.5,15C14.41,15,15.78,14.21,16.46,12.71z M27.46,12.71  c0.11-0.25,0-0.55-0.25-0.66c-0.25-0.11-0.55,0-0.66,0.25C26.03,13.43,25.01,14,23.5,14c-1.45,0-2.47-0.58-3.05-1.73  c-0.13-0.25-0.43-0.35-0.67-0.22c-0.25,0.12-0.34,0.43-0.22,0.67C20.31,14.21,21.67,15,23.5,15C25.41,15,26.78,14.21,27.46,12.71z"/></g><g width="36" height="36" viewBox="0 0 36 36" fill="none" id="face_very_happy_v2-filled"><path d="M24.93 22C24.33 24.74 21.02 26 18.07 26C15.12 26 11.78 24.74 11.09 22H24.93ZM25.27 21H10.75C10.33 21 9.97 21.33 10.02 21.71C10.52 25.24 14.31 27 18.07 27C21.85 27 25.6 25.23 26 21.69C26.04 21.32 25.68 21 25.27 21ZM18 3C26.27 3 33 9.73 33 18C33 26.27 26.27 33 18 33C9.73 33 3 26.27 3 18C3 9.73 9.73 3 18 3ZM18 2C9.16 2 2 9.16 2 18C2 26.84 9.16 34 18 34C26.84 34 34 26.84 34 18C34 9.16 26.84 2 18 2ZM16.21 14.96C16.46 14.85 16.57 14.55 16.46 14.3C15.78 12.79 14.41 12 12.5 12C10.67 12 9.31 12.79 8.55 14.27C8.43 14.52 8.52 14.82 8.77 14.94C9.02 15.07 9.32 14.97 9.44 14.72C10.03 13.58 11.05 13 12.5 13C14.01 13 15.03 13.57 15.54 14.71C15.63 14.89 15.81 15 16 15C16.07 15 16.14 14.99 16.21 14.96ZM27.21 14.96C27.46 14.85 27.57 14.55 27.46 14.3C26.78 12.79 25.41 12 23.5 12C21.67 12 20.31 12.79 19.55 14.27C19.43 14.52 19.52 14.82 19.77 14.94C20.02 15.07 20.32 14.97 20.44 14.72C21.03 13.58 22.05 13 23.5 13C25.01 13 26.03 13.57 26.54 14.71C26.63 14.89 26.81 15 27 15C27.07 15 27.14 14.99 27.21 14.96Z" fill="black"/><circle cx="18" cy="18" r="16" fill="#FFD61D"/><path d="M24.93 20.5C24.33 23.24 21.02 24.5 18.07 24.5C15.12 24.5 11.78 23.24 11.09 20.5H24.93ZM25.27 19.5H10.75C10.33 19.5 9.97003 19.83 10.02 20.21C10.52 23.74 14.31 25.5 18.07 25.5C21.85 25.5 25.6 23.73 26 20.19C26.04 19.82 25.68 19.5 25.27 19.5ZM16.21 13.46C16.46 13.35 16.57 13.05 16.46 12.8C15.78 11.29 14.41 10.5 12.5 10.5C10.67 10.5 9.31003 11.29 8.55003 12.77C8.43003 13.02 8.52003 13.32 8.77003 13.44C9.02003 13.57 9.32003 13.47 9.44003 13.22C10.03 12.08 11.05 11.5 12.5 11.5C14.01 11.5 15.03 12.07 15.54 13.21C15.63 13.39 15.81 13.5 16 13.5C16.07 13.5 16.14 13.49 16.21 13.46ZM27.21 13.46C27.46 13.35 27.57 13.05 27.46 12.8C26.78 11.29 25.41 10.5 23.5 10.5C21.67 10.5 20.31 11.29 19.55 12.77C19.43 13.02 19.52 13.32 19.77 13.44C20.02 13.57 20.32 13.47 20.44 13.22C21.03 12.08 22.05 11.5 23.5 11.5C25.01 11.5 26.03 12.07 26.54 13.21C26.63 13.39 26.81 13.5 27 13.5C27.07 13.5 27.14 13.49 27.21 13.46Z" fill="black"/><path d="M10.75 19.5H25.27C25.68 19.5 26.04 19.82 26 20.19C25.6 23.73 21.85 25.5 18.07 25.5C14.31 25.5 10.52 23.74 10.02 20.21C9.97003 19.83 10.33 19.5 10.75 19.5Z" fill="black"/><path d="M21.3594 23.3832H18H14.6406C14.6832 23.2411 14.7541 23.1017 14.8523 22.9679C15.0235 22.7347 15.2745 22.5227 15.5909 22.3442C15.9072 22.1657 16.2828 22.0241 16.6962 21.9274C17.1095 21.8308 17.5526 21.7811 18 21.7811C18.4474 21.7811 18.8905 21.8308 19.3038 21.9274C19.7172 22.0241 20.0928 22.1657 20.4091 22.3442C20.7255 22.5227 20.9765 22.7347 21.1477 22.9679C21.2459 23.1017 21.3168 23.2411 21.3594 23.3832Z" fill="#FFD61D"/><path d="M21.3594 23.3832C21.3168 23.4679 21.2459 23.551 21.1477 23.6307C20.9765 23.7697 20.7255 23.896 20.4091 24.0024C20.0928 24.1088 19.7172 24.1932 19.3038 24.2508C18.8905 24.3084 18.4474 24.338 18 24.338C17.5526 24.338 17.1095 24.3084 16.6962 24.2508C16.2828 24.1932 15.9072 24.1088 15.5909 24.0024C15.2745 23.896 15.0235 23.7697 14.8523 23.6307C14.7541 23.551 14.6832 23.4679 14.6406 23.3832H18H21.3594Z" fill="#FFD61D"/></g><g width="36" height="36" viewBox="0 0 36 36" id="face_very_happy_v2"><path d="M24.93,22c-0.6,2.74-3.91,4-6.86,4c-2.95,0-6.29-1.26-6.98-4H24.93 M25.27,21H10.75c-0.42,0-0.78,0.33-0.73,0.71  c0.5,3.53,4.29,5.29,8.05,5.29c3.78,0,7.53-1.77,7.93-5.31C26.04,21.32,25.68,21,25.27,21L25.27,21z M18,3c8.27,0,15,6.73,15,15  s-6.73,15-15,15S3,26.27,3,18S9.73,3,18,3 M18,2C9.16,2,2,9.16,2,18s7.16,16,16,16s16-7.16,16-16S26.84,2,18,2L18,2z M16.21,14.96  c0.25-0.11,0.36-0.41,0.25-0.66C15.78,12.79,14.41,12,12.5,12c-1.83,0-3.19,0.79-3.95,2.27c-0.12,0.25-0.03,0.55,0.22,0.67  c0.25,0.13,0.55,0.03,0.67-0.22C10.03,13.58,11.05,13,12.5,13c1.51,0,2.53,0.57,3.04,1.71C15.63,14.89,15.81,15,16,15  C16.07,15,16.14,14.99,16.21,14.96z M27.21,14.96c0.25-0.11,0.36-0.41,0.25-0.66C26.78,12.79,25.41,12,23.5,12  c-1.83,0-3.19,0.79-3.95,2.27c-0.12,0.25-0.03,0.55,0.22,0.67c0.25,0.13,0.55,0.03,0.67-0.22C21.03,13.58,22.05,13,23.5,13  c1.51,0,2.53,0.57,3.04,1.71C26.63,14.89,26.81,15,27,15C27.07,15,27.14,14.99,27.21,14.96z"/></g></defs></svg>