<svg xmlns="http://www.w3.org/2000/svg"><defs><g width="16" height="16" viewBox="0 0 16 16" id="add"><path d="M13,8H8v5H7V8H2V7h5V2h1v5h5V8z"/></g><g id="arrow_circle_right"><path d="M14,1v3.43c-1.24-2.1-3.49-3.41-6-3.41C4.15,1.01,1.01,4.15,1.01,8S4.15,14.99,8,14.99s6.99-3.13,6.99-6.99h-1&#10;&#9;c0,3.3-2.69,5.99-5.99,5.99S2.01,11.3,2.01,8S4.7,2.01,8,2.01c2.18,0,4.12,1.15,5.18,2.99H10v1h5V1H14z"/></g><g width="16" height="16" viewBox="0 0 16 16" id="bar_horizontal"><path d="M14,8H2V7h12V8z"/></g><g id="check_circle_thick-filled"><path d="M8,1C4.13,1,1,4.13,1,8c0,3.87,3.13,7,7,7s7-3.13,7-7C15,4.13,11.87,1,8,1z M6.5,11.91L3.79,9.21l1.41-1.41L6.5,9.09 l4.29-4.29l1.41,1.41L6.5,11.91z"/></g><g id="check_circle_thick"><path d="M8,2c3.31,0,6,2.69,6,6s-2.69,6-6,6s-6-2.69-6-6S4.69,2,8,2 M8,1C4.13,1,1,4.13,1,8s3.13,7,7,7s7-3.13,7-7S11.87,1,8,1L8,1z M12.21,6.21l-1.41-1.41L6.5,9.09L5.21,7.79L3.79,9.21l2.71,2.71L12.21,6.21z"/></g><g mirror-in-rtl="" id="chevron_left"><path d="M10.15,13.35L4.79,8l5.35-5.35l0.71,0.71L6.21,8l4.65,4.65L10.15,13.35z"/></g><g mirror-in-rtl="" id="chevron_right"><path d="M4.97,12.65L9.62,8L4.97,3.35l0.71-0.71L11.03,8l-5.35,5.35L4.97,12.65z"/></g><g id="comment-filled"><path d="M3,2v9h7l3,3V2ZM9,8H5V7H9Zm2-2H5V5h6Z"/></g><g id="comment"><path d="M12,3v8.59l-1.29-1.3-.3-.29H4V3h8m1-1H3v9h7l3,3V2ZM9,7H5V8H9Zm2-2H5V6h6Z"/></g><g id="dislike-filled"><path d="M3.54,2A1.55,1.55,0,0,0,2,3.13L1,7.37C.83,8.24,1,9,2,9H6L4.52,12.54A1.17,1.17,0,0,0,5.71,14a1.49,1.49,0,0,0,1.09-.46L11,9l0-7ZM12,2h3V9H12Z"/></g><g id="dislike"><path d="M3.54,2A1.55,1.55,0,0,0,2,3.13L1,7.37C.83,8.24,1,9,2,9H6L4.52,12.54A1.17,1.17,0,0,0,5.71,14a1.49,1.49,0,0,0,1.09-.46L11,9h4V2ZM6.07,12.86a.51.51,0,0,1-.36.14.28.28,0,0,1-.22-.09l0-.05L6.92,9.39,7.5,8H2a1.5,1.5,0,0,1,0-.41L3,3.35A.58.58,0,0,1,3.54,3H10V8.61ZM14,8H11l0-5h3Z"/></g><g id="dollar_sign_circle-filled"><path fill-rule="evenodd" d="M8,15c3.87,0,7-3.13,7-7c0-3.87-3.13-7-7-7C4.13,1,1,4.13,1,8 C1,11.87,4.13,15,8,15z M9,4V3H7v1C5.9,4,5,4.9,5,6v1c0,1.1,0.9,2,2,2h2v1H5v2h2v1h2v-1c1.1,0,2-0.9,2-2V9c0-1.1-0.9-2-2-2H7V6h4V4 H9z"/></g><g id="dollar_sign_circle"><path fill-rule="evenodd" d="M9,4V3H7v1C5.9,4,5,4.9,5,6v1c0,1.1,0.9,2,2,2h2v1H5v2h2v1h2v-1c1.1,0,2-0.9,2-2V9 c0-1.1-0.9-2-2-2H7V6h4V4H9z M8,2c3.31,0,6,2.69,6,6s-2.69,6-6,6s-6-2.69-6-6S4.69,2,8,2 M8,1C4.13,1,1,4.13,1,8s3.13,7,7,7 s7-3.13,7-7S11.87,1,8,1L8,1z"/></g><g id="fire"><path d="M6.16,8.68L9,7v3.33c0,1.06-0.84,1.92-1.87,1.92s-1.87-0.86-1.87-1.92C5.26,9.63,5.62,9.02,6.16,8.68z M12.6,2.85v6.3&#10;&#9;C12.6,11.82,10.54,14,8,14c-2.54,0-4.6-2.18-4.6-4.86V9.05c0-0.7,0.14-1.41,0.41-2.05c0.33-0.78,0.85-1.46,1.5-1.96&#10;&#9;C5.88,4.6,6.56,4.27,7.27,3.92C7.51,3.8,7.76,3.68,8,3.56V4v1.85l1.55-1.01L12.6,2.85 M13.6,1L9,4V2C8.41,2.31,8.21,2.32,7.62,2.63&#10;&#9;C6.63,3.14,5.59,3.57,4.7,4.25C3.91,4.86,3.28,5.69,2.89,6.61C2.57,7.38,2.4,8.21,2.4,9.05c0,0.02,0,0.08,0,0.1&#10;&#9;C2.4,12.38,4.91,15,8,15c3.09,0,5.6-2.62,5.6-5.85V1L13.6,1z"/></g><g id="heart_circle"><path d="M9.74,5.47c0.16,0.01,0.3,0.05,0.44,0.11c0.15,0.07,0.28,0.17,0.39,0.29c0.11,0.12,0.19,0.27,0.25,0.42&#10;&#9;c0.06,0.16,0.08,0.32,0.07,0.49l0,0.03v0.03c0,0.54-0.21,1.06-0.71,1.75C9.83,9.04,8.8,10.13,8,10.95c-0.8-0.82-1.83-1.91-2.17-2.37&#10;&#9;c-0.5-0.68-0.71-1.2-0.71-1.74V6.81l0-0.03C5.1,6.62,5.13,6.45,5.18,6.29c0.06-0.16,0.14-0.3,0.25-0.42&#10;&#9;c0.11-0.12,0.24-0.22,0.38-0.29c0.13-0.06,0.28-0.1,0.42-0.11C6.43,5.48,6.61,5.52,6.77,5.6C6.94,5.69,7.09,5.82,7.2,5.97L8,7.01&#10;&#9;l0.8-1.04C8.91,5.82,9.06,5.69,9.23,5.6C9.39,5.52,9.57,5.48,9.74,5.47 M9.76,4.47C9.42,4.47,9.08,4.56,8.78,4.71h0&#10;&#9;C8.48,4.87,8.21,5.09,8,5.36c-0.21-0.27-0.48-0.5-0.78-0.65c-0.3-0.15-0.64-0.24-1-0.24C5.93,4.48,5.65,4.55,5.39,4.68&#10;&#9;c-0.27,0.13-0.5,0.3-0.7,0.53c-0.2,0.22-0.35,0.48-0.45,0.76C4.14,6.24,4.1,6.54,4.11,6.84c0,0.76,0.28,1.48,0.91,2.34&#10;&#9;c0.57,0.78,2.66,2.88,2.75,2.97L8,12.38l0.23-0.23c0.09-0.09,2.18-2.2,2.75-2.97c0.63-0.85,0.91-1.58,0.91-2.34&#10;&#9;c0.02-0.3-0.03-0.59-0.13-0.87c-0.1-0.28-0.25-0.54-0.45-0.76c-0.2-0.22-0.43-0.4-0.7-0.53C10.35,4.55,10.07,4.48,9.76,4.47&#10;&#9;L9.76,4.47z M8,2c3.31,0,6,2.69,6,6s-2.69,6-6,6s-6-2.69-6-6S4.69,2,8,2 M8,1C4.13,1,1,4.13,1,8s3.13,7,7,7c3.87,0,7-3.13,7-7&#10;&#9;S11.87,1,8,1L8,1z"/></g><g id="help-filled"><path d="M8,1C4.14,1,1,4.14,1,8s3.14,7,7,7s7-3.14,7-7S11.86,1,8,1z M8,12.3c-0.44,0-0.8-0.36-0.8-0.8s0.36-0.8,0.8-0.8 s0.8,0.36,0.8,0.8S8.44,12.3,8,12.3z M8.66,9.45H7.35c0-2.13,1.97-1.96,1.97-3.28c0-0.72-0.59-1.31-1.31-1.31S6.69,5.45,6.69,6.17 H5.38c0-1.45,1.18-2.62,2.62-2.62s2.62,1.18,2.62,2.62C10.62,7.81,8.66,7.98,8.66,9.45z"/></g><g id="help"><path d="M8,2c3.31,0,6,2.69,6,6s-2.69,6-6,6s-6-2.69-6-6S4.69,2,8,2 M8,1C4.14,1,1,4.14,1,8s3.14,7,7,7s7-3.14,7-7S11.86,1,8,1L8,1z M8,12.3c0.44,0,0.8-0.36,0.8-0.8S8.44,10.7,8,10.7s-0.8,0.36-0.8,0.8S7.56,12.3,8,12.3z M8,3.55c-1.45,0-2.62,1.18-2.62,2.62h1.31 c0-0.72,0.59-1.31,1.31-1.31s1.31,0.59,1.31,1.31c0,1.32-1.97,1.15-1.97,3.28h1.31c0-1.48,1.97-1.64,1.97-3.28 C10.62,4.72,9.45,3.55,8,3.55z"/></g><g id="info"><path d="M8,2c3.31,0,6,2.69,6,6s-2.69,6-6,6s-6-2.69-6-6S4.69,2,8,2 M8,1C4.13,1,1,4.13,1,8s3.13,7,7,7s7-3.13,7-7S11.87,1,8,1L8,1z M9,3H7v2h2V3L9,3z M7,6v7h2V6H7z"/></g><g id="like-filled"><path d="M12.42,14A1.54,1.54,0,0,0,14,12.87l1-4.24C15.12,7.76,15,7,14,7H10l1.48-3.54A1.17,1.17,0,0,0,10.24,2a1.49,1.49,0,0,0-1.08.46L5,7l0,7ZM4,14H1V7H4Z"/></g><g id="like"><path d="M12.42,14A1.54,1.54,0,0,0,14,12.87l1-4.24C15.12,7.76,15,7,14,7H10l1.48-3.54A1.17,1.17,0,0,0,10.24,2a1.49,1.49,0,0,0-1.08.46L5,7H1v7ZM9.89,3.14A.48.48,0,0,1,10.24,3a.29.29,0,0,1,.23.09S9,6.61,9,6.61L8.46,8H14c0,.08-1,4.65-1,4.65a.58.58,0,0,1-.58.35H6V7.39ZM2,8H5v5H2Z"/></g><g id="lock"><path d="M11.33,4.09C11.33,2.38,9.84,1,8,1S4.67,2.38,4.67,4.09V5H3v10h10V5h-1.67V4.09z M5.67,4.09C5.67,2.94,6.71,2,8,2&#10;&#9;&#9;s2.33,0.94,2.33,2.09V5H5.67V4.09z M12,6v8H4V6H12z M6,10c0-1.1,0.9-2,2-2s2,0.9,2,2c0,1.1-0.9,2-2,2S6,11.1,6,10z"/></g><g id="message_bubble_question-filled"><path d="M3,2v12l3-3h7V2H3z M8.02,9C7.77,9,7.57,8.8,7.57,8.56c0-0.24,0.2-0.44,0.44-0.44s0.44,0.2,0.44,0.44&#10;&#9;C8.46,8.8,8.26,9,8.02,9z M8.92,6.46c-0.23,0.21-0.46,0.39-0.51,0.7L8.39,7.25H7.62l0.01-0.12c0.06-0.51,0.35-0.77,0.65-0.99&#10;&#9;c0.23-0.18,0.45-0.34,0.45-0.65c0-0.22-0.1-0.42-0.28-0.56C8.27,4.78,8.04,4.73,7.82,4.79C7.56,4.85,7.36,5.08,7.3,5.37L7.27,5.5&#10;&#9;H6.5l0.03-0.18C6.61,4.7,7.03,4.2,7.6,4.06c0.46-0.13,0.95-0.04,1.32,0.25C9.29,4.59,9.5,5.01,9.5,5.48C9.5,5.96,9.2,6.21,8.92,6.46&#10;&#9;z"/></g><g id="message_bubble_question"><path d="M4,3v8.59L5.59,10H12V3H4z M3,2h10v9H6l-3,3V2z M9.5,5.48c0,0.48-0.3,0.73-0.58,0.98c-0.23,0.21-0.46,0.39-0.51,0.7 L8.39,7.25H7.62l0.01-0.12c0.06-0.51,0.35-0.77,0.65-0.99c0.23-0.18,0.45-0.34,0.45-0.65c0-0.22-0.1-0.42-0.28-0.56 C8.27,4.78,8.04,4.73,7.82,4.79C7.56,4.85,7.36,5.08,7.3,5.37L7.27,5.5H6.5l0.03-0.18C6.61,4.7,7.03,4.2,7.6,4.06 c0.46-0.13,0.95-0.03,1.32,0.25C9.29,4.59,9.5,5.01,9.5,5.48z M8.02,9c0.24,0,0.44-0.2,0.44-0.44c0-0.24-0.2-0.44-0.44-0.44 s-0.44,0.2-0.44,0.44C7.57,8.8,7.77,9,8.02,9z"/></g><g id="music-filled"><path d="M13,1H8v3v5.78C7.47,9.3,6.77,9,6,9c-1.66,0-3,1.34-3,3s1.34,3,3,3s3-1.34,3-3V4h4V1z"/></g><g id="music"><path d="M13,1H8v3v5.78C7.47,9.3,6.77,9,6,9c-1.66,0-3,1.34-3,3s1.34,3,3,3s3-1.34,3-3V4h4V1z M6,14c-1.1,0-2-0.9-2-2 c0-1.1,0.9-2,2-2s2,0.9,2,2C8,13.1,7.1,14,6,14z M12,3H9V2h3V3z"/></g><g id="open_in_new"><path d="M13,10h1v4H2V2h4v1H3v10h10V10z M8,3h4.29L6.15,9.15l0.71,0.71L13,3.71V8h1V2H8V3z"/></g><g id="podcast"><path fill-rule="evenodd" clip-rule="evenodd" d="M9,9.72V15H7V9.72C6.4,9.38,6,8.74,6,8c0-1.1,0.9-2,2-2s2,0.9,2,2&#10;&#9;C10,8.74,9.6,9.38,9,9.72z M5.17,10.83C4.45,10.1,4,9.1,4,8c0-2.21,1.79-4,4-4s4,1.79,4,4c0,1.1-0.45,2.1-1.17,2.83l0.71,0.71&#10;&#9;C12.44,10.63,13,9.38,13,8c0-2.76-2.24-5-5-5S3,5.24,3,8c0,1.38,0.56,2.63,1.46,3.54L5.17,10.83z M3.76,12.24C2.67,11.15,2,9.65,2,8&#10;&#9;c0-3.31,2.69-6,6-6s6,2.69,6,6c0,1.65-0.67,3.15-1.76,4.24l0.71,0.71C14.22,11.68,15,9.93,15,8c0-3.87-3.13-7-7-7S1,4.13,1,8&#10;&#9;c0,1.93,0.78,3.68,2.05,4.95L3.76,12.24z"/></g><g id="radar_live"><path d="M9 8.00004C9 8.55004 8.55 9.00004 8 9.00004C7.45 9.00004 7 8.55004 7 8.00004C7 7.45004 7.45 7.00004 8 7.00004C8.55 7.00004 9 7.45004 9 8.00004ZM10.11 10.13L10.82 10.84C11.55 10.11 12 9.11004 12 8.00004C12 6.89004 11.55 5.89004 10.82 5.16004L10.11 5.87004C10.66 6.42004 11 7.17004 11 8.00004C11 8.83004 10.66 9.58004 10.11 10.13ZM5.18 10.84L5.89 10.13C5.34 9.58004 5 8.83004 5 8.00004C5 7.17004 5.34 6.42004 5.89 5.87004L5.18 5.16004C4.45 5.89004 4 6.89004 4 8.00004C4 9.11004 4.45 10.11 5.18 10.84ZM12.23 12.25L12.94 12.96C14.21 11.69 15 9.94004 15 8.00004C15 6.06004 14.21 4.31004 12.94 3.04004L12.23 3.75004C13.32 4.84004 14 6.34004 14 8.00004C14 9.66004 13.32 11.16 12.23 12.25ZM3.06 12.96L3.77 12.25C2.68 11.16 2 9.66004 2 8.00004C2 6.34004 2.68 4.84004 3.77 3.75004L3.06 3.04004C1.79 4.31004 1 6.06004 1 8.00004C1 9.94004 1.79 11.69 3.06 12.96Z"/></g><g id="rating_up"><path d="M15,3v6h-1V4.71l-5.44,5.44L5.6,8.17l-3.71,4.64l-0.78-0.62L5.4,6.83l3.04,2.03L13.29,4H9V3H15z"/></g><g id="super_sticker-filled"><path fill-rule="evenodd" d="M1,3v10h10.71L15,9.71V3H1z M10.01,10.92L7.99,9.66l-2.02,1.26l0.54-2.41 L4.75,6.86l2.33-0.18l0.93-2.26l0.91,2.26l2.33,0.18L9.48,8.51L10.01,10.92z M11.5,11.79V9.5h2.29L11.5,11.79z"/></g><g id="super_sticker"><path fill-rule="evenodd" d="M7.99,9.66l-2.02,1.26l0.54-2.41L4.75,6.86l2.33-0.18l0.93-2.26l0.91,2.26 l2.33,0.18L9.48,8.51l0.53,2.41L7.99,9.66z M1,3v10h10.5L15,9.5V3H1z M14,9h-3v3H2V4h12V9z"/></g><g id="transcript"><path fill-rule="evenodd" clip-rule="evenodd" d="M4.22,4H1V3h3.22V4z M15,7h-3.22v1H15V7z M4.22,11H1v1h3.22V11z M15,3H6v1h9V3z&#10;&#9;&#9; M10,7H1v1h9V7z M15,11H6v1h9V11z"/></g><g id="transcript_search"><path d="M4,3H1V2h3V3z M1,11h3v-1H1V11z M6,2v1h9V2H6z M13.05,10.89l1.84,2.3l-0.78,0.62l-1.84-2.31C11.74,11.81,11.15,12,10.5,12&#10;&#9;c-0.98,0-1.86-0.41-2.5-1.06V11H6v-1h1.35C7.13,9.54,7,9.04,7,8.5S7.13,7.46,7.35,7H1V6h7.06c0.63-0.62,1.49-1,2.44-1&#10;&#9;C12.43,5,14,6.57,14,8.5C14,9.42,13.63,10.26,13.05,10.89z M10.5,11c1.38,0,2.5-1.12,2.5-2.5C13,7.12,11.88,6,10.5,6S8,7.12,8,8.5&#10;&#9;C8,9.88,9.12,11,10.5,11z"/></g><g width="16" height="16" viewBox="0 0 16 16" id="youtube_shorts_no_triangle-filled"><path d="M10.65,1C10.65,1,10.65,1,10.65,1c-0.37,0-0.75,0.1-1.09,0.31L4.25,4.46C3.44,4.93,2.96,5.89,3,6.9  C3.05,7.9,3.58,8.77,4.39,9.18c0.02,0.01,0.75,0.35,0.75,0.35l-0.9,0.53c-1.14,0.68-1.58,2.27-0.98,3.55C3.69,14.49,4.5,15,5.35,15  c0.37,0,0.74-0.1,1.09-0.31l5.31-3.15c0.8-0.48,1.29-1.43,1.24-2.45c-0.04-0.99-0.58-1.87-1.39-2.27c-0.02-0.01-0.75-0.35-0.75-0.35  l0.9-0.53c1.14-0.68,1.58-2.27,0.97-3.55C12.31,1.51,11.49,1,10.65,1L10.65,1z"/></g><g width="16" height="16" viewBox="0 0 16 16" id="youtube_shorts_no_triangle"><path d="M10.65,2c0.48,0,0.93,0.32,1.17,0.82c0.38,0.81,0.12,1.85-0.58,2.26l-2.54,1.5l2.45,1.13c0.48,0.24,0.81,0.8,0.84,1.42  c0.03,0.65-0.27,1.25-0.76,1.54l-5.31,3.15C5.74,13.94,5.55,14,5.35,14c-0.48,0-0.93-0.32-1.17-0.83c-0.38-0.81-0.12-1.85,0.58-2.26  l2.53-1.5L4.84,8.28C4.36,8.04,4.03,7.48,4,6.86C3.97,6.21,4.27,5.6,4.76,5.32l5.31-3.15C10.25,2.06,10.45,2,10.65,2 M10.65,1  C10.65,1,10.65,1,10.65,1c-0.37,0-0.75,0.1-1.09,0.31L4.25,4.46C3.44,4.93,2.96,5.89,3,6.9C3.05,7.9,3.58,8.77,4.39,9.18  c0.02,0.01,0.75,0.35,0.75,0.35l-0.9,0.53c-1.14,0.68-1.58,2.27-0.98,3.55C3.69,14.49,4.5,15,5.35,15c0.37,0,0.74-0.1,1.09-0.31  l5.31-3.15c0.8-0.48,1.29-1.43,1.24-2.45c-0.04-0.99-0.58-1.87-1.39-2.27c-0.02-0.01-0.75-0.35-0.75-0.35l0.9-0.53  c1.14-0.68,1.58-2.27,0.97-3.55C12.31,1.51,11.49,1,10.65,1L10.65,1z"/></g></defs></svg>